<svg width="157" height="23" viewBox="0 0 157 23" fill="none" xmlns="http://www.w3.org/2000/svg">
<g clip-path="url(#clip0_19_62)">
<path fill-rule="evenodd" clip-rule="evenodd" d="M8 4.83333C8.59393 8.2391 11.2609 10.9061 14.6667 11.5C11.2609 12.0939 8.59393 14.7609 8 18.1667C7.40607 14.7609 4.7391 12.0939 1.33333 11.5C4.7391 10.9061 7.40607 8.2391 8 4.83333Z" fill="#0D141C"/>
</g>
<path d="M38.741 19.52C37.445 19.52 36.335 19.238 35.411 18.674C34.487 18.104 33.776 17.312 33.278 16.298C32.786 15.284 32.54 14.108 32.54 12.77C32.54 11.432 32.786 10.256 33.278 9.242C33.776 8.228 34.487 7.439 35.411 6.875C36.335 6.305 37.445 6.02 38.741 6.02C40.235 6.02 41.48 6.395 42.476 7.145C43.472 7.889 44.171 8.894 44.573 10.16L42.386 10.763C42.134 9.917 41.705 9.257 41.099 8.783C40.493 8.303 39.707 8.063 38.741 8.063C37.871 8.063 37.145 8.258 36.563 8.648C35.987 9.038 35.552 9.587 35.258 10.295C34.97 10.997 34.823 11.822 34.817 12.77C34.817 13.718 34.961 14.546 35.249 15.254C35.543 15.956 35.981 16.502 36.563 16.892C37.145 17.282 37.871 17.477 38.741 17.477C39.707 17.477 40.493 17.237 41.099 16.757C41.705 16.277 42.134 15.617 42.386 14.777L44.573 15.38C44.171 16.646 43.472 17.654 42.476 18.404C41.48 19.148 40.235 19.52 38.741 19.52ZM50.5843 19.52C49.6123 19.52 48.7633 19.301 48.0373 18.863C47.3113 18.425 46.7473 17.822 46.3453 17.054C45.9493 16.28 45.7513 15.392 45.7513 14.39C45.7513 13.37 45.9553 12.476 46.3633 11.708C46.7713 10.94 47.3383 10.34 48.0643 9.908C48.7903 9.476 49.6303 9.26 50.5843 9.26C51.5623 9.26 52.4143 9.479 53.1403 9.917C53.8663 10.355 54.4303 10.961 54.8323 11.735C55.2343 12.503 55.4353 13.388 55.4353 14.39C55.4353 15.398 55.2313 16.289 54.8233 17.063C54.4213 17.831 53.8573 18.434 53.1313 18.872C52.4053 19.304 51.5563 19.52 50.5843 19.52ZM50.5843 17.486C51.4483 17.486 52.0903 17.198 52.5103 16.622C52.9303 16.046 53.1403 15.302 53.1403 14.39C53.1403 13.448 52.9273 12.698 52.5013 12.14C52.0753 11.576 51.4363 11.294 50.5843 11.294C50.0023 11.294 49.5223 11.426 49.1443 11.69C48.7723 11.948 48.4963 12.311 48.3163 12.779C48.1363 13.241 48.0463 13.778 48.0463 14.39C48.0463 15.332 48.2593 16.085 48.6853 16.649C49.1173 17.207 49.7503 17.486 50.5843 17.486ZM61.0476 19.52C60.1536 19.52 59.3736 19.295 58.7076 18.845C58.0416 18.395 57.5256 17.783 57.1596 17.009C56.7936 16.235 56.6106 15.362 56.6106 14.39C56.6106 13.406 56.7936 12.53 57.1596 11.762C57.5316 10.988 58.0566 10.379 58.7346 9.935C59.4126 9.485 60.2106 9.26 61.1286 9.26C62.0526 9.26 62.8266 9.485 63.4506 9.935C64.0806 10.379 64.5576 10.988 64.8816 11.762C65.2056 12.536 65.3676 13.412 65.3676 14.39C65.3676 15.356 65.2056 16.229 64.8816 17.009C64.5576 17.783 64.0746 18.395 63.4326 18.845C62.7906 19.295 61.9956 19.52 61.0476 19.52ZM61.3806 17.576C61.9626 17.576 62.4306 17.444 62.7846 17.18C63.1446 16.91 63.4056 16.535 63.5676 16.055C63.7356 15.575 63.8196 15.02 63.8196 14.39C63.8196 13.754 63.7356 13.199 63.5676 12.725C63.4056 12.245 63.1506 11.873 62.8026 11.609C62.4546 11.339 62.0046 11.204 61.4526 11.204C60.8706 11.204 60.3906 11.348 60.0126 11.636C59.6346 11.918 59.3556 12.302 59.1756 12.788C58.9956 13.268 58.9056 13.802 58.9056 14.39C58.9056 14.984 58.9926 15.524 59.1666 16.01C59.3466 16.49 59.6196 16.871 59.9856 17.153C60.3516 17.435 60.8166 17.576 61.3806 17.576ZM63.8196 19.25V12.428H63.5496V6.29H65.7366V19.25H63.8196ZM72.4134 19.52C71.4294 19.52 70.5654 19.307 69.8214 18.881C69.0774 18.455 68.4954 17.864 68.0754 17.108C67.6614 16.352 67.4544 15.482 67.4544 14.498C67.4544 13.436 67.6584 12.515 68.0664 11.735C68.4744 10.949 69.0414 10.34 69.7674 9.908C70.4934 9.476 71.3334 9.26 72.2874 9.26C73.2954 9.26 74.1504 9.497 74.8524 9.971C75.5604 10.439 76.0854 11.102 76.4274 11.96C76.7694 12.818 76.8984 13.829 76.8144 14.993H74.6634V14.201C74.6574 13.145 74.4714 12.374 74.1054 11.888C73.7394 11.402 73.1634 11.159 72.3774 11.159C71.4894 11.159 70.8294 11.435 70.3974 11.987C69.9654 12.533 69.7494 13.334 69.7494 14.39C69.7494 15.374 69.9654 16.136 70.3974 16.676C70.8294 17.216 71.4594 17.486 72.2874 17.486C72.8214 17.486 73.2804 17.369 73.6644 17.135C74.0544 16.895 74.3544 16.55 74.5644 16.1L76.7064 16.748C76.3344 17.624 75.7584 18.305 74.9784 18.791C74.2044 19.277 73.3494 19.52 72.4134 19.52ZM69.0654 14.993V13.355H75.7524V14.993H69.0654ZM81.9163 19.25V6.29H90.2863V8.324H84.0853V11.519H89.2063V13.553H84.0853V17.216H90.2863V19.25H81.9163ZM91.1019 19.25L94.6569 14.336L91.1739 9.53H93.7299L95.9169 12.635L98.0679 9.53H100.624L97.1409 14.336L100.714 19.25H98.1579L95.9169 16.037L93.6579 19.25H91.1019ZM105.945 19.52C104.961 19.52 104.097 19.307 103.353 18.881C102.609 18.455 102.027 17.864 101.607 17.108C101.193 16.352 100.986 15.482 100.986 14.498C100.986 13.436 101.19 12.515 101.598 11.735C102.006 10.949 102.573 10.34 103.299 9.908C104.025 9.476 104.865 9.26 105.819 9.26C106.827 9.26 107.682 9.497 108.384 9.971C109.092 10.439 109.617 11.102 109.959 11.96C110.301 12.818 110.43 13.829 110.346 14.993H108.195V14.201C108.189 13.145 108.003 12.374 107.637 11.888C107.271 11.402 106.695 11.159 105.909 11.159C105.021 11.159 104.361 11.435 103.929 11.987C103.497 12.533 103.281 13.334 103.281 14.39C103.281 15.374 103.497 16.136 103.929 16.676C104.361 17.216 104.991 17.486 105.819 17.486C106.353 17.486 106.812 17.369 107.196 17.135C107.586 16.895 107.886 16.55 108.096 16.1L110.238 16.748C109.866 17.624 109.29 18.305 108.51 18.791C107.736 19.277 106.881 19.52 105.945 19.52ZM102.597 14.993V13.355H109.284V14.993H102.597ZM116.325 19.52C115.323 19.52 114.468 19.298 113.76 18.854C113.052 18.404 112.509 17.792 112.131 17.018C111.759 16.244 111.57 15.368 111.564 14.39C111.57 13.394 111.765 12.512 112.149 11.744C112.539 10.97 113.091 10.364 113.805 9.926C114.519 9.482 115.368 9.26 116.352 9.26C117.456 9.26 118.389 9.539 119.151 10.097C119.919 10.649 120.42 11.405 120.654 12.365L118.494 12.95C118.326 12.428 118.047 12.023 117.657 11.735C117.267 11.441 116.823 11.294 116.325 11.294C115.761 11.294 115.296 11.429 114.93 11.699C114.564 11.963 114.294 12.329 114.12 12.797C113.946 13.265 113.859 13.796 113.859 14.39C113.859 15.314 114.066 16.061 114.48 16.631C114.894 17.201 115.509 17.486 116.325 17.486C116.901 17.486 117.354 17.354 117.684 17.09C118.02 16.826 118.272 16.445 118.44 15.947L120.654 16.442C120.354 17.432 119.829 18.194 119.079 18.728C118.329 19.256 117.411 19.52 116.325 19.52ZM125.843 19.529C125.123 19.529 124.529 19.409 124.061 19.169C123.593 18.929 123.221 18.623 122.945 18.251C122.669 17.879 122.465 17.483 122.333 17.063C122.201 16.643 122.114 16.247 122.072 15.875C122.036 15.497 122.018 15.191 122.018 14.957V9.53H124.214V14.21C124.214 14.51 124.235 14.849 124.277 15.227C124.319 15.599 124.415 15.959 124.565 16.307C124.721 16.649 124.949 16.931 125.249 17.153C125.555 17.375 125.966 17.486 126.482 17.486C126.758 17.486 127.031 17.441 127.301 17.351C127.571 17.261 127.814 17.108 128.03 16.892C128.252 16.67 128.429 16.367 128.561 15.983C128.693 15.599 128.759 15.113 128.759 14.525L130.046 15.074C130.046 15.902 129.884 16.652 129.56 17.324C129.242 17.996 128.771 18.533 128.147 18.935C127.523 19.331 126.755 19.529 125.843 19.529ZM129.02 19.25V16.235H128.759V9.53H130.937V19.25H129.02ZM138.895 19.25C138.253 19.37 137.623 19.421 137.005 19.403C136.393 19.391 135.844 19.28 135.358 19.07C134.872 18.854 134.503 18.515 134.25 18.053C134.029 17.633 133.912 17.204 133.9 16.766C133.888 16.328 133.882 15.833 133.882 15.281V6.83H136.042V15.155C136.042 15.545 136.045 15.887 136.051 16.181C136.063 16.475 136.126 16.715 136.24 16.901C136.456 17.261 136.801 17.462 137.275 17.504C137.749 17.546 138.289 17.522 138.895 17.432V19.25ZM132.118 11.231V9.53H138.895V11.231H132.118ZM144.522 19.52C143.55 19.52 142.701 19.301 141.975 18.863C141.249 18.425 140.685 17.822 140.283 17.054C139.887 16.28 139.689 15.392 139.689 14.39C139.689 13.37 139.893 12.476 140.301 11.708C140.709 10.94 141.276 10.34 142.002 9.908C142.728 9.476 143.568 9.26 144.522 9.26C145.5 9.26 146.352 9.479 147.078 9.917C147.804 10.355 148.368 10.961 148.77 11.735C149.172 12.503 149.373 13.388 149.373 14.39C149.373 15.398 149.169 16.289 148.761 17.063C148.359 17.831 147.795 18.434 147.069 18.872C146.343 19.304 145.494 19.52 144.522 19.52ZM144.522 17.486C145.386 17.486 146.028 17.198 146.448 16.622C146.868 16.046 147.078 15.302 147.078 14.39C147.078 13.448 146.865 12.698 146.439 12.14C146.013 11.576 145.374 11.294 144.522 11.294C143.94 11.294 143.46 11.426 143.082 11.69C142.71 11.948 142.434 12.311 142.254 12.779C142.074 13.241 141.984 13.778 141.984 14.39C141.984 15.332 142.197 16.085 142.623 16.649C143.055 17.207 143.688 17.486 144.522 17.486ZM151.088 19.25V9.53H153.005V11.897L152.771 11.591C152.891 11.267 153.05 10.973 153.248 10.709C153.452 10.439 153.695 10.217 153.977 10.043C154.217 9.881 154.481 9.755 154.769 9.665C155.063 9.569 155.363 9.512 155.669 9.494C155.975 9.47 156.272 9.482 156.56 9.53V11.555C156.272 11.471 155.939 11.444 155.561 11.474C155.189 11.504 154.853 11.609 154.553 11.789C154.253 11.951 154.007 12.158 153.815 12.41C153.629 12.662 153.491 12.95 153.401 13.274C153.311 13.592 153.266 13.937 153.266 14.309V19.25H151.088Z" fill="#0D141C"/>
<defs>
<clipPath id="clip0_19_62">
<rect width="16" height="16" fill="white" transform="translate(0 3.5)"/>
</clipPath>
</defs>
</svg>
