<svg width="40" height="41" viewBox="0 0 40 41" fill="none" xmlns="http://www.w3.org/2000/svg">
<rect y="0.5" width="40" height="40" rx="12" fill="#E8EDF5"/>
<g clip-path="url(#clip0_19_76)">
<path fill-rule="evenodd" clip-rule="evenodd" d="M28.0406 27.0625C26.8508 25.0055 25.0172 23.5305 22.8773 22.8313C25.053 21.5361 26.0951 18.947 25.4235 16.5057C24.7518 14.0645 22.5319 12.3729 20 12.3729C17.4681 12.3729 15.2482 14.0645 14.5765 16.5057C13.9049 18.947 14.947 21.5361 17.1227 22.8313C14.9828 23.5297 13.1492 25.0047 11.9594 27.0625C11.8406 27.2562 11.8363 27.4991 11.9481 27.6969C12.0599 27.8947 12.2703 28.0162 12.4975 28.0142C12.7247 28.0123 12.933 27.8872 13.0414 27.6875C14.5133 25.1438 17.1148 23.625 20 23.625C22.8852 23.625 25.4867 25.1438 26.9586 27.6875C27.067 27.8872 27.2753 28.0123 27.5025 28.0142C27.7297 28.0162 27.9401 27.8947 28.0519 27.6969C28.1637 27.4991 28.1594 27.2562 28.0406 27.0625ZM15.625 18C15.625 15.5838 17.5838 13.625 20 13.625C22.4162 13.625 24.375 15.5838 24.375 18C24.375 20.4162 22.4162 22.375 20 22.375C17.5848 22.3724 15.6276 20.4152 15.625 18Z" fill="#0D141C"/>
</g>
<defs>
<clipPath id="clip0_19_76">
<rect width="20" height="20" fill="white" transform="translate(10 10.5)"/>
</clipPath>
</defs>
</svg>
